<mxfile host="65bd71144e" modified="2020-11-21T13:43:21.904Z" agent="5.0 (Windows NT 10.0; Win64; x64) AppleWebKit/537.36 (KHTML, like Gecko) Code/1.51.1 Chrome/83.0.4103.122 Electron/9.3.3 Safari/537.36" version="13.6.5" etag="S5zETeJCPgK8DTV9B1Pw">
    <diagram id="-Gph0b9YKnWH-68u1Aj-" name="Page-1">
        <mxGraphModel dx="1204" dy="790" grid="1" gridSize="10" guides="1" tooltips="1" connect="1" arrows="1" fold="1" page="1" pageScale="1" pageWidth="827" pageHeight="1169" math="0" shadow="0">
            <root>
                <mxCell id="0"/>
                <mxCell id="1" parent="0"/>
                <mxCell id="2" value="Container" style="swimlane;" vertex="1" parent="1">
                    <mxGeometry x="170" y="120" width="530" height="580" as="geometry">
                        <mxRectangle x="160" y="120" width="90" height="23" as="alternateBounds"/>
                    </mxGeometry>
                </mxCell>
                <mxCell id="3" value="" style="rounded=1;whiteSpace=wrap;html=1;" vertex="1" parent="2">
                    <mxGeometry x="40" y="50" width="440" height="60" as="geometry"/>
                </mxCell>
                <mxCell id="4" value="My Webpage" style="text;html=1;strokeColor=none;fillColor=none;align=center;verticalAlign=middle;whiteSpace=wrap;rounded=0;fontSize=36;" vertex="1" parent="2">
                    <mxGeometry x="150" y="50" width="250" height="60" as="geometry"/>
                </mxCell>
                <mxCell id="6" value="" style="rounded=0;whiteSpace=wrap;html=1;fontSize=36;" vertex="1" parent="2">
                    <mxGeometry x="40" y="200" width="160" height="240" as="geometry"/>
                </mxCell>
                <mxCell id="7" value="" style="whiteSpace=wrap;html=1;aspect=fixed;fontSize=36;" vertex="1" parent="2">
                    <mxGeometry x="240" y="200" width="240" height="240" as="geometry"/>
                </mxCell>
                <mxCell id="8" value="" style="rounded=1;whiteSpace=wrap;html=1;fontSize=36;" vertex="1" parent="2">
                    <mxGeometry x="34" y="480" width="440" height="80" as="geometry"/>
                </mxCell>
                <mxCell id="9" value="Copyright" style="text;html=1;strokeColor=none;fillColor=none;align=center;verticalAlign=middle;whiteSpace=wrap;rounded=0;fontSize=36;" vertex="1" parent="2">
                    <mxGeometry x="234" y="510" width="40" height="20" as="geometry"/>
                </mxCell>
                <mxCell id="10" value="&lt;h1 style=&quot;font-size: 18px&quot;&gt;Navigation&lt;/h1&gt;&lt;div&gt;-sdasfaef&lt;/div&gt;&lt;div&gt;&lt;br&gt;&lt;/div&gt;&lt;div&gt;-sdasfadsf&lt;/div&gt;&lt;div&gt;&lt;br&gt;&lt;/div&gt;&lt;div&gt;-safdgsfhg&lt;/div&gt;&lt;div&gt;&lt;br&gt;&lt;/div&gt;&lt;div&gt;-fdgsfgfg&lt;/div&gt;" style="text;html=1;strokeColor=none;fillColor=none;spacing=5;spacingTop=-20;whiteSpace=wrap;overflow=hidden;rounded=0;fontSize=18;" vertex="1" parent="2">
                    <mxGeometry x="40" y="200" width="160" height="240" as="geometry"/>
                </mxCell>
                <mxCell id="11" value="Home Page&amp;nbsp;&lt;br&gt;&lt;br&gt;-sdadefdsfgfgdfgssssssdfg&lt;br&gt;gdfggfdgfdrg&lt;br&gt;gddfgfdgfdg&lt;br&gt;&lt;br&gt;-gsfdgfrdgfdgfd&lt;br&gt;gfdg&lt;br&gt;fdg&lt;br&gt;gdf&lt;br&gt;gdfg" style="text;html=1;strokeColor=none;fillColor=none;spacing=5;spacingTop=-20;whiteSpace=wrap;overflow=hidden;rounded=0;fontSize=18;" vertex="1" parent="2">
                    <mxGeometry x="240" y="210" width="240" height="230" as="geometry"/>
                </mxCell>
                <mxCell id="25" value="Content" style="swimlane;fontSize=18;" vertex="1" parent="2">
                    <mxGeometry x="20" y="140" width="490" height="320" as="geometry"/>
                </mxCell>
                <mxCell id="17" value="" style="edgeStyle=elbowEdgeStyle;elbow=horizontal;endArrow=classic;html=1;fontSize=18;" edge="1" parent="1">
                    <mxGeometry width="50" height="50" relative="1" as="geometry">
                        <mxPoint x="70" y="690" as="sourcePoint"/>
                        <mxPoint x="180" y="640" as="targetPoint"/>
                        <Array as="points">
                            <mxPoint x="110" y="640"/>
                        </Array>
                    </mxGeometry>
                </mxCell>
                <mxCell id="18" value="" style="endArrow=classic;html=1;fontSize=18;entryX=0;entryY=0.25;entryDx=0;entryDy=0;" edge="1" parent="1" target="10">
                    <mxGeometry relative="1" as="geometry">
                        <mxPoint x="70" y="380" as="sourcePoint"/>
                        <mxPoint x="140" y="380" as="targetPoint"/>
                    </mxGeometry>
                </mxCell>
                <mxCell id="20" value="" style="endArrow=classic;html=1;fontSize=18;" edge="1" parent="1">
                    <mxGeometry relative="1" as="geometry">
                        <mxPoint x="750" y="400" as="sourcePoint"/>
                        <mxPoint x="650" y="370" as="targetPoint"/>
                    </mxGeometry>
                </mxCell>
                <mxCell id="22" value="" style="endArrow=classic;html=1;fontSize=18;" edge="1" parent="1">
                    <mxGeometry width="50" height="50" relative="1" as="geometry">
                        <mxPoint x="260" y="80" as="sourcePoint"/>
                        <mxPoint x="320" y="160" as="targetPoint"/>
                    </mxGeometry>
                </mxCell>
                <mxCell id="23" value="#header" style="text;html=1;strokeColor=none;fillColor=none;align=center;verticalAlign=middle;whiteSpace=wrap;rounded=0;fontSize=18;" vertex="1" parent="1">
                    <mxGeometry x="220" y="50" width="40" height="20" as="geometry"/>
                </mxCell>
                <mxCell id="28" value="" style="endArrow=classic;html=1;fontSize=18;entryX=0.935;entryY=0.056;entryDx=0;entryDy=0;entryPerimeter=0;" edge="1" parent="1" target="25">
                    <mxGeometry width="50" height="50" relative="1" as="geometry">
                        <mxPoint x="780" y="240" as="sourcePoint"/>
                        <mxPoint x="650" y="300" as="targetPoint"/>
                        <Array as="points">
                            <mxPoint x="790" y="310"/>
                        </Array>
                    </mxGeometry>
                </mxCell>
                <mxCell id="29" value="#content" style="text;html=1;strokeColor=none;fillColor=none;align=center;verticalAlign=middle;whiteSpace=wrap;rounded=0;fontSize=18;" vertex="1" parent="1">
                    <mxGeometry x="760" y="210" width="40" height="20" as="geometry"/>
                </mxCell>
                <mxCell id="30" value="#footer" style="text;html=1;strokeColor=none;fillColor=none;align=center;verticalAlign=middle;whiteSpace=wrap;rounded=0;fontSize=18;" vertex="1" parent="1">
                    <mxGeometry x="20" y="680" width="40" height="20" as="geometry"/>
                </mxCell>
                <mxCell id="31" value="#nav" style="text;html=1;strokeColor=none;fillColor=none;align=center;verticalAlign=middle;whiteSpace=wrap;rounded=0;fontSize=18;" vertex="1" parent="1">
                    <mxGeometry x="20" y="370" width="40" height="20" as="geometry"/>
                </mxCell>
                <mxCell id="32" value="#main" style="text;html=1;strokeColor=none;fillColor=none;align=center;verticalAlign=middle;whiteSpace=wrap;rounded=0;fontSize=18;" vertex="1" parent="1">
                    <mxGeometry x="740" y="410" width="40" height="20" as="geometry"/>
                </mxCell>
            </root>
        </mxGraphModel>
    </diagram>
</mxfile>